<svg width="46" height="46" viewBox="0 0 46 46" fill="none" xmlns="http://www.w3.org/2000/svg">
<circle cx="23" cy="23" r="21" fill="#FFFEFE" stroke="#06596A" stroke-width="4"/>
<path fill-rule="evenodd" clip-rule="evenodd" d="M23.2649 7.75281C31.6807 7.75281 38.5057 14.5777 38.5057 22.9936C38.5057 31.4094 30.8596 38.2344 23.2649 38.2344C15.6707 38.2344 10.7498 33.8134 8.76605 27.7004L8.76528 27.7006C7.25488 27.7329 5.88311 26.7361 5.60102 25.2062L4.96257 21.7447C4.64714 20.0342 5.78839 18.3766 7.49889 18.0612C9.20951 17.7457 10.867 18.8873 11.1824 20.5975L11.8208 24.059C12.0964 25.553 11.2752 26.9332 9.9226 27.4684C11.7737 33.0446 16.3292 37.0642 23.2649 37.0642C30.2941 37.0642 37.3355 30.7633 37.3355 22.9936C37.3355 15.2239 31.0346 8.92299 23.2649 8.92299C18.6879 8.92299 14.6216 11.1098 12.0519 14.4952C11.6634 15.0071 11.3944 15.483 12.1061 15.8168L15.3564 17.3408C16.0476 17.6649 16.0507 18.1988 16.1856 18.895L17.7404 26.9139H29.0795L29.917 23.8752H23.1182C22.8439 23.8752 22.617 23.6118 22.617 23.2899V23.2898C22.617 22.9679 22.8425 22.7045 23.1182 22.7045H30.2395L30.8245 20.5815C30.9011 20.2887 30.7781 20.0965 30.4465 20.095H21.2192C20.9435 20.095 20.718 19.8317 20.718 19.5097V19.5096C20.718 19.1877 20.9435 18.9243 21.2192 18.9243H31.1274L31.1482 18.9248C31.9248 18.8992 32.3476 19.2637 32.227 19.8989L29.9716 28.0841H29.9202V28.0846H17.0031V28.0841H16.7528L14.8771 18.4089L10.7855 16.4905C10.3409 16.3126 9.92331 15.6114 10.3394 14.9169C13.0337 10.6148 17.8156 7.75281 23.2649 7.75281ZM5.77094 24.0855C6.48374 23.5196 7.30378 23.1662 8.21632 23.0417C8.33475 24.4831 8.50104 25.9144 8.91656 27.2609L8.69819 27.3148C6.93345 27.3792 5.81454 26.1054 5.77094 24.0855ZM8.57339 23.005C9.40803 22.9466 10.3145 23.072 11.2824 23.3928C11.8113 25.2502 11.3288 26.576 9.61088 27.0895L9.28993 27.1688C8.94479 25.8967 8.71053 24.5038 8.57339 23.005Z" fill="#E77919"/>
<path d="M19.4236 32.6561C20.2413 32.6561 20.9042 31.9932 20.9042 31.1754C20.9042 30.3577 20.2413 29.6947 19.4236 29.6947C18.6058 29.6947 17.9429 30.3577 17.9429 31.1754C17.9429 31.9932 18.6058 32.6561 19.4236 32.6561Z" fill="#332C2B" stroke="#FEFDFD" stroke-miterlimit="2.61313"/>
<path d="M26.9382 32.6561C27.756 32.6561 28.4189 31.9932 28.4189 31.1754C28.4189 30.3577 27.756 29.6947 26.9382 29.6947C26.1204 29.6947 25.4575 30.3577 25.4575 31.1754C25.4575 31.9932 26.1204 32.6561 26.9382 32.6561Z" fill="#332C2B" stroke="#FEFDFD" stroke-miterlimit="2.61313"/>
</svg>
